M48
; DRILL file {KiCad (5.1.12-1-10_14)} date Sunday, December 26, 2021 at 11:33:07 pm
; FORMAT={-:-/ absolute / inch / decimal}
; #@! TF.CreationDate,2021-12-26T23:33:07-08:00
; #@! TF.GenerationSoftware,Kicad,Pcbnew,(5.1.12-1-10_14)
; #@! TF.FileFunction,Plated,1,2,PTH
FMAT,2
INCH
T1C0.0157
T2C0.0276
T3C0.0579
%
G90
G05
T1
X1.53Y-5.315
X1.75Y-4.7
X1.875Y-4.625
X1.91Y-4.96
X1.91Y-5.16
X2.545Y-5.405
X2.665Y-4.88
T3
X3.0288Y-4.5275
X3.0288Y-5.2775
X3.0803Y-4.47
X3.0803Y-5.22
X3.2772Y-4.4503
X3.2772Y-5.2003
X3.2788Y-4.4275
X3.2788Y-5.1775
X3.7788Y-4.5275
X3.7788Y-5.2775
X3.8303Y-4.47
X3.8303Y-5.22
X4.0272Y-4.4503
X4.0272Y-5.2003
X4.0287Y-4.4275
X4.0287Y-5.1775
T2
G00X1.2663Y-4.2964
M15
G01X1.2663Y-4.3436
M16
G05
G00X1.2663Y-4.4735
M15
G01X1.2663Y-4.5208
M16
G05
G00X1.5537Y-4.2964
M15
G01X1.5537Y-4.3436
M16
G05
G00X1.5537Y-4.4735
M15
G01X1.5537Y-4.5208
M16
G05
T0
M30
